<?xml version="1.0" standalone="no"?>
<!DOCTYPE svg PUBLIC "-//W3C//DTD SVG 20010904//EN"
 "http://www.w3.org/TR/2001/REC-SVG-20010904/DTD/svg10.dtd">
<svg version="1.0" xmlns="http://www.w3.org/2000/svg"
 width="1024.000000pt" height="1024.000000pt" viewBox="0 0 1024.000000 1024.000000"
 preserveAspectRatio="xMidYMid meet">
<g transform="translate(0.000000,1024.000000) scale(0.100000,-0.100000)"
fill="#000000" stroke="none">
<path d="M4665 10225 c-847 -78 -1646 -354 -2345 -813 -316 -207 -538 -389
-821 -671 -283 -283 -465 -506 -671 -821 -462 -706 -739 -1506 -813 -2350 -19
-227 -20 -671 0 -893 93 -1058 490 -2019 1175 -2847 133 -161 479 -507 640
-640 847 -701 1837 -1102 2918 -1181 211 -15 735 -7 931 15 1014 115 1936 508
2731 1166 161 133 507 479 640 640 685 827 1082 1789 1175 2847 19 219 19 667
0 886 -93 1059 -490 2019 -1175 2847 -133 161 -479 507 -640 640 -826 684
-1791 1083 -2840 1175 -213 18 -703 18 -905 0z m219 -452 c3 -21 8 -97 12
-168 l6 -131 -157 -13 c-186 -15 -344 -38 -550 -81 -82 -17 -151 -32 -152 -33
-1 -2 18 -78 42 -170 31 -120 40 -169 32 -172 -7 -3 -68 -21 -137 -41 -578
-166 -1112 -471 -1587 -905 l-145 -132 -116 116 c-65 65 -122 117 -129 117
-35 0 -426 -481 -518 -637 -11 -18 -23 -33 -27 -33 -5 0 -69 41 -144 91 l-135
90 17 27 c153 240 394 531 645 778 663 650 1490 1083 2404 1258 168 32 460 69
592 74 40 2 41 1 47 -35z m671 22 c1199 -115 2284 -667 3085 -1570 134 -152
318 -391 404 -527 l17 -27 -135 -90 c-75 -50 -140 -91 -145 -91 -5 0 -12 7
-15 15 -32 84 -499 662 -527 653 -5 -2 -63 -54 -129 -116 l-120 -113 -127 117
c-492 453 -1089 788 -1678 940 -33 9 -63 18 -67 20 -3 2 13 79 37 171 24 92
43 168 42 169 -1 1 -56 13 -122 28 -197 43 -339 65 -544 83 l-193 18 6 130 c9
177 14 205 35 205 10 0 89 -7 176 -15z m-116 -1535 c46 -5 86 -11 88 -14 2 -2
-37 -345 -87 -762 -50 -418 -91 -772 -93 -788 -2 -30 -2 -30 85 -48 298 -60
567 -206 791 -430 65 -65 121 -118 123 -118 2 0 283 210 625 466 341 256 626
467 633 470 28 11 221 -289 341 -531 l85 -169 -723 -309 c-397 -169 -726 -312
-730 -316 -4 -4 6 -49 23 -99 62 -186 74 -266 74 -492 0 -225 -9 -285 -65
-467 -18 -57 -30 -104 -28 -106 2 -2 324 -139 714 -306 391 -166 714 -307 719
-311 12 -12 -122 -284 -214 -436 -66 -109 -178 -274 -187 -274 -2 0 -285 211
-629 470 l-626 469 -117 -118 c-173 -177 -340 -290 -547 -371 -102 -40 -280
-90 -321 -90 -18 0 -23 -6 -23 -24 0 -14 41 -363 90 -777 50 -414 87 -756 83
-760 -14 -13 -233 -29 -408 -29 -148 0 -394 15 -403 25 -2 2 37 345 87 762 50
417 91 767 91 778 0 18 -11 23 -72 34 -104 19 -268 74 -375 126 -161 79 -295
176 -435 316 l-126 128 -627 -470 c-584 -438 -628 -469 -641 -452 -141 178
-415 667 -388 693 5 4 326 144 714 310 388 165 709 305 713 309 5 5 -5 51 -21
103 -55 170 -67 253 -67 468 0 219 12 299 72 483 19 60 33 110 31 111 -2 1
-318 137 -703 301 -385 164 -710 303 -723 308 -28 13 -27 16 58 192 70 144
201 363 280 471 l45 60 625 -469 c344 -257 630 -470 636 -473 6 -3 65 48 130
113 227 226 525 387 806 434 l78 13 -6 35 c-7 52 -184 1529 -184 1540 0 33
482 47 729 21z m-4268 -1297 c-101 -220 -226 -553 -243 -647 -3 -16 19 -25
162 -65 91 -25 164 -51 163 -56 -2 -6 -16 -66 -32 -135 -79 -332 -105 -567
-105 -940 0 -306 10 -441 55 -700 19 -108 70 -336 83 -370 5 -12 -26 -24 -153
-59 -87 -24 -163 -46 -169 -50 -23 -14 131 -435 256 -704 l51 -107 -149 -75
-150 -75 -34 68 c-249 496 -411 1081 -467 1682 -16 174 -16 606 0 780 56 601
218 1186 467 1682 l34 68 149 -75 149 -74 -67 -148z m8192 168 c384 -811 527
-1700 416 -2595 -50 -406 -167 -849 -323 -1220 -75 -176 -149 -326 -161 -326
-7 0 -76 31 -153 70 l-141 69 50 108 c125 267 280 690 257 704 -5 4 -81 26
-169 50 -127 35 -158 47 -153 59 13 36 65 265 83 375 70 405 78 837 25 1230
-18 132 -67 384 -93 478 -10 37 -16 69 -12 71 3 2 76 23 161 46 85 24 158 46
162 49 9 9 -99 334 -159 476 -28 66 -74 169 -102 228 l-50 108 141 69 c77 39
146 70 153 70 6 0 37 -53 68 -119z m-7826 -4489 c131 -194 435 -562 466 -562
7 0 64 53 129 117 l117 117 108 -100 c490 -455 1033 -768 1624 -939 68 -19
129 -37 136 -40 8 -3 -1 -52 -32 -172 -24 -92 -43 -168 -42 -169 1 -1 80 -18
176 -38 184 -39 410 -71 579 -82 l102 -7 -1 -51 c-1 -83 -16 -276 -22 -282 -3
-4 -86 1 -184 10 -1374 129 -2611 844 -3412 1974 -37 53 -76 109 -85 124 l-17
27 133 90 c73 49 138 90 143 90 6 0 42 -48 82 -107z m7389 17 l135 -90 -17
-27 c-86 -136 -270 -375 -404 -527 -749 -844 -1760 -1389 -2865 -1544 -167
-24 -404 -45 -412 -37 -6 6 -21 200 -22 281 l-1 50 193 18 c203 18 345 40 542
83 66 15 121 27 122 28 1 1 -18 77 -42 169 -31 120 -40 169 -32 172 7 3 68 21
137 41 578 166 1114 472 1588 905 l142 130 120 -113 c66 -62 124 -114 129
-116 10 -3 188 194 291 323 40 50 113 147 162 218 49 70 92 127 94 127 3 0 65
-41 140 -91z"/>
</g>
</svg>
